<mxfile host="app.diagrams.net" modified="2022-07-22T06:14:40.141Z" agent="5.0 (Macintosh; Intel Mac OS X 10_15_7) AppleWebKit/537.36 (KHTML, like Gecko) Chrome/103.0.0.0 Safari/537.36" etag="0PDPI8bYbNNA42YZzgCv" version="20.1.4" type="github">
  <diagram id="dvHW0tO31KjV8tmZyLa1" name="Page-1">
    <mxGraphModel dx="1044" dy="534" grid="1" gridSize="10" guides="1" tooltips="1" connect="1" arrows="1" fold="1" page="1" pageScale="1" pageWidth="827" pageHeight="1169" math="0" shadow="0">
      <root>
        <mxCell id="0" />
        <mxCell id="1" parent="0" />
        <mxCell id="AJ233ovZ9w-jYj6eS4X0-1" value="" style="ellipse;shape=cloud;whiteSpace=wrap;html=1;" vertex="1" parent="1">
          <mxGeometry x="260" y="230" width="120" height="80" as="geometry" />
        </mxCell>
        <mxCell id="AJ233ovZ9w-jYj6eS4X0-3" style="edgeStyle=orthogonalEdgeStyle;rounded=0;orthogonalLoop=1;jettySize=auto;html=1;exitX=1;exitY=0.3333333333333333;exitDx=0;exitDy=0;exitPerimeter=0;" edge="1" parent="1" source="AJ233ovZ9w-jYj6eS4X0-2" target="AJ233ovZ9w-jYj6eS4X0-1">
          <mxGeometry relative="1" as="geometry" />
        </mxCell>
        <mxCell id="AJ233ovZ9w-jYj6eS4X0-2" value="Actor" style="shape=umlActor;verticalLabelPosition=bottom;verticalAlign=top;html=1;outlineConnect=0;" vertex="1" parent="1">
          <mxGeometry x="100" y="170" width="30" height="60" as="geometry" />
        </mxCell>
        <mxCell id="AJ233ovZ9w-jYj6eS4X0-5" style="edgeStyle=orthogonalEdgeStyle;rounded=0;orthogonalLoop=1;jettySize=auto;html=1;exitX=0.5;exitY=1;exitDx=0;exitDy=0;exitPerimeter=0;entryX=0.625;entryY=0.2;entryDx=0;entryDy=0;entryPerimeter=0;" edge="1" parent="1" source="AJ233ovZ9w-jYj6eS4X0-4" target="AJ233ovZ9w-jYj6eS4X0-1">
          <mxGeometry relative="1" as="geometry" />
        </mxCell>
        <mxCell id="AJ233ovZ9w-jYj6eS4X0-4" value="" style="shape=cylinder3;whiteSpace=wrap;html=1;boundedLbl=1;backgroundOutline=1;size=15;" vertex="1" parent="1">
          <mxGeometry x="370" y="90" width="60" height="80" as="geometry" />
        </mxCell>
        <mxCell id="AJ233ovZ9w-jYj6eS4X0-8" style="edgeStyle=orthogonalEdgeStyle;rounded=0;orthogonalLoop=1;jettySize=auto;html=1;exitX=0;exitY=0;exitDx=70;exitDy=80;exitPerimeter=0;entryX=0.25;entryY=0.25;entryDx=0;entryDy=0;entryPerimeter=0;" edge="1" parent="1" source="AJ233ovZ9w-jYj6eS4X0-7" target="AJ233ovZ9w-jYj6eS4X0-1">
          <mxGeometry relative="1" as="geometry" />
        </mxCell>
        <mxCell id="AJ233ovZ9w-jYj6eS4X0-7" value="" style="shape=cube;whiteSpace=wrap;html=1;boundedLbl=1;backgroundOutline=1;darkOpacity=0.05;darkOpacity2=0.1;" vertex="1" parent="1">
          <mxGeometry x="160" y="60" width="120" height="80" as="geometry" />
        </mxCell>
      </root>
    </mxGraphModel>
  </diagram>
</mxfile>
